# ProBuilder 5.2.2
# https://unity3d.com/unity/features/worldbuilding/probuilder
# 27.09.2024 18:40:06

mtllib ./Stairs_(70).mtl
o Stairs (70)

g Stairs (70)
v -78.16532 70.49999 34.72501
v -78.16534 70.49999 32.72501
v -78.16532 70.74999 34.72501
v -78.16534 70.74999 32.72501
v -77.66532 70.74999 34.72501
v -77.66534 70.74999 32.72501
v -77.66532 70.99999 34.72501
v -77.66534 70.99999 32.72501
v -77.16532 70.99999 34.725
v -77.16534 70.99999 32.725
v -77.16532 71.24999 34.725
v -77.16534 71.24999 32.725
v -76.66532 71.24999 34.72499
v -76.66534 71.24999 32.72499
v -76.66532 71.49999 34.72499
v -76.66534 71.49999 32.72499
v -76.16532 71.49999 34.72499
v -76.16534 71.49999 32.72499
v -76.16532 71.74999 34.72499
v -76.16534 71.74999 32.72499
v -75.66532 71.74999 34.72499
v -75.66534 71.74999 32.72499
v -75.66532 71.99999 34.72499
v -75.66534 71.99999 32.72499
v -75.16532 71.99999 34.72498
v -75.16534 71.99999 32.72498
v -75.16532 72.24999 34.72498
v -75.16534 72.24999 32.72498
v -74.66532 72.24999 34.72498
v -74.66534 72.24999 32.72498
v -74.66532 72.49999 34.72498
v -74.66534 72.49999 32.72498
v -74.16532 72.49999 34.72498
v -74.16534 72.49999 32.72497
v -74.16532 72.74999 34.72498
v -74.16534 72.74999 32.72497
v -73.66532 72.74999 34.72497
v -73.66534 72.74999 32.72497
v -73.16532 72.74999 34.72496
v -73.16534 72.74999 32.72496
v -78.16534 69.99999 32.72501
v -77.66534 70.24999 32.72501
v -78.16532 69.99999 34.72501
v -77.16532 70.49999 34.725
v -77.66532 70.24999 34.72501
v -77.16534 70.49999 32.725
v -76.66534 70.74999 32.72499
v -76.66532 70.74999 34.72499
v -76.16534 70.99999 32.72499
v -75.66534 71.24999 32.72499
v -75.66532 71.24999 34.72499
v -76.16532 70.99999 34.72499
v -75.16532 71.49999 34.72498
v -75.16534 71.49999 32.72498
v -74.66534 71.74999 32.72498
v -74.66532 71.74999 34.72498
v -74.16532 71.99999 34.72498
v -74.16534 71.99999 32.72497
v -73.66534 72.24999 32.72497
v -73.66532 72.24999 34.72497
v -73.16534 72.49999 32.72496
v -73.16532 72.49999 34.72496

vt 1 -1
vt -1 -1
vt 1 -0.75
vt -1 -0.75
vt 1 -2.5
vt -1 -2.5
vt 1 -2
vt -1 -2
vt 1 -0.5
vt -1 -0.5
vt 1 -1.5
vt -1 -1.5
vt 1 -0.25
vt -1 -0.25
vt 1 0
vt -1 0
vt 1 0.25
vt -1 0.25
vt 1 0.5
vt -1 0.5
vt 1 0.75
vt -1 0.75
vt 1 1
vt -1 1
vt 1 1.5
vt -1 1.5
vt 1 1.25
vt -1 1.25
vt 1 2
vt -1 2
vt 0.9999999 2
vt 0.999999 2.5
vt -1.000001 2.499997
vt 2.5 -0.75
vt 2 -0.75
vt 2.5 -1.5
vt 2 -1.25
vt -1.5 -0.5
vt -2 -0.5
vt -1.5 -1
vt -2 -1.25
vt 2 -0.5
vt 1.5 -0.5
vt 1.5 -1
vt 1.5 -0.25
vt -1.5 -0.25
vt 0.5 0
vt 0.5 -0.5
vt 0.5 0.25
vt 0 0.25
vt 0 -0.25
vt -0.5 0.25
vt -0.5 -0.5
vt -0.5 0
vt -2 -0.75
vt -2.5 -0.75
vt -2.5 -1.5
vt 0.5000001 0.5
vt 0 0.5
vt -0.5000001 0.5
vt -0.5000001 0.75
vt 0.5000001 0.75
vt 1.5 1
vt 1.5 0.5
vt -1.5 1
vt -1.5 0.5
vt -1.5 1.25
vt -2 1.25
vt -2 0.75
vt 2 1.25
vt 1.5 1.25
vt 2 0.75
vt -2.499999 1.25
vt -2.500002 1
vt 0.9999968 1.249971
vt -1.000003 1.249971
vt 0.9999958 0.9999714
vt -1.000004 0.9999714
vt 2.499999 1.249996
vt 1.999999 1.249996
vt 2.499998 0.9999959
vt 1.999998 0.7499959
vt -1 2.124264
vt -1 2.683281
vt 1 2.683281
vt 1 2.124264
vt -1 1.565248
vt 1 1.565248
vt -1 1.006231
vt 1 1.006231
vt -1 0.4472136
vt 1 0.4472136
vt -1 -0.1118034
vt 1 -0.1118034
vt -1 -0.6708204
vt 1 -0.6708204
vt -1 -1.229837
vt 1 -1.229837
vt -1 -1.788854
vt 1 -1.788854
vt -1 -2.347871
vt 1 -2.347871
vt 1 -2.906888
vt -1 -2.906888

vn -1 0 8.940697E-06
vn 0 1 -1.421085E-14
vn 0 0 0
vn -8.940697E-06 0 -1
vn 8.940697E-06 0 1
vn 1 1.144409E-05 -1.060963E-05
vn 0.4472136 -0.8944272 -3.998401E-06

usemtl M_AggregateBuilding_1
f 3/3/1 4/4/1 2/2/1 1/1/1
f 5/7/2 6/8/2 4/6/2 3/5/2
f 7/9/1 8/10/1 6/4/1 5/3/1
f 9/11/2 10/12/2 8/8/2 7/7/2
f 11/13/1 12/14/1 10/10/1 9/9/1
f 13/1/2 14/2/2 12/12/2 11/11/2
f 15/15/1 16/16/1 14/14/1 13/13/1
f 17/9/2 18/10/2 16/2/2 15/1/2
f 19/17/1 20/18/1 18/16/1 17/15/1
f 21/15/2 22/16/2 20/10/2 19/9/2
f 23/19/1 24/20/1 22/18/1 21/17/1
f 25/19/2 26/20/2 24/16/2 23/15/2
f 27/21/1 28/22/1 26/20/1 25/19/1
f 29/23/2 30/24/2 28/20/2 27/19/2
f 31/23/1 32/24/1 30/22/1 29/21/1
f 33/25/2 34/26/2 32/24/2 31/23/2
f 35/27/1 36/28/1 34/24/1 33/23/1
f 37/29/2 38/30/2 36/26/2 35/25/2
f 37/31/3 38/30/3 38/30/3 37/29/3
f 39/32/2 40/33/2 38/30/2 37/31/2
f 42/37/4 41/36/4 4/34/4 6/35/4
f 41/12/1 43/11/1 1/1/1 2/2/1
f 45/41/5 44/40/5 9/38/5 7/39/5
f 46/44/4 42/37/4 8/42/4 10/43/4
f 47/3/4 46/44/4 12/45/4 14/13/4
f 44/40/5 48/4/5 13/14/5 11/46/5
f 49/48/4 47/3/4 16/15/4 18/47/4
f 50/51/4 49/48/4 20/49/4 22/50/4
f 52/53/5 51/51/5 21/50/5 19/52/5
f 48/4/5 52/53/5 17/54/5 15/16/5
f 43/57/5 45/41/5 5/55/5 3/56/5
f 51/51/5 53/47/5 25/58/5 23/59/5
f 54/54/4 50/51/4 24/59/4 26/60/4
f 55/18/4 54/54/4 28/61/4 30/22/4
f 53/47/5 56/17/5 29/21/5 27/62/5
f 56/17/5 57/64/5 33/63/5 31/23/5
f 58/66/4 55/18/4 32/24/4 34/65/4
f 59/69/4 58/66/4 36/67/4 38/68/4
f 57/64/5 60/72/5 37/70/5 35/71/5
f 61/74/4 59/69/4 38/68/4 40/73/4
f 62/78/6 61/77/6 40/75/6 39/76/6
f 60/82/5 62/81/5 39/79/5 37/80/5
f 59/86/7 61/85/7 62/84/7 60/83/7
f 58/88/7 59/86/7 60/83/7 57/87/7
f 55/90/7 58/88/7 57/87/7 56/89/7
f 54/92/7 55/90/7 56/89/7 53/91/7
f 50/94/7 54/92/7 53/91/7 51/93/7
f 49/96/7 50/94/7 51/93/7 52/95/7
f 47/98/7 49/96/7 52/95/7 48/97/7
f 46/100/7 47/98/7 48/97/7 44/99/7
f 41/103/7 42/102/7 45/101/7 43/104/7
f 42/102/7 46/100/7 44/99/7 45/101/7

