# ProBuilder 5.2.2
# https://unity3d.com/unity/features/worldbuilding/probuilder
# 27.09.2024 18:40:06

mtllib ./Stairs_(16).mtl
o Stairs (16)

g Stairs (16)
v -11.50998 24.79479 34.62436
v -13.50998 24.79479 34.62438
v -11.50998 25.04479 34.62436
v -13.50998 25.04479 34.62438
v -11.50999 25.04479 34.12436
v -13.50999 25.04479 34.12438
v -11.50999 25.29479 34.12436
v -13.50999 25.29479 34.12438
v -11.50999 25.29479 33.62436
v -13.50999 25.29479 33.62438
v -11.50999 25.54479 33.62436
v -13.50999 25.54479 33.62438
v -11.50999 25.54479 33.12436
v -13.50999 25.54479 33.12438
v -11.50999 25.79479 33.12436
v -13.50999 25.79479 33.12438
v -11.51 25.79479 32.62436
v -13.51 25.79479 32.62438
v -11.51 26.04479 32.62436
v -13.51 26.04479 32.62438
v -11.51 26.04479 32.12436
v -13.51 26.04479 32.12438
v -11.51 26.29479 32.12436
v -13.51 26.29479 32.12438
v -11.51 26.29479 31.62436
v -13.51 26.29479 31.62438
v -11.51 26.54479 31.62436
v -13.51 26.54479 31.62438
v -11.51 26.54479 31.12436
v -13.51 26.54479 31.12438
v -11.51 26.79479 31.12436
v -13.51 26.79479 31.12438
v -11.51001 26.79479 30.62436
v -13.51001 26.79479 30.62438
v -11.51001 27.04479 30.62436
v -13.51001 27.04479 30.62438
v -11.51001 27.04479 30.12436
v -13.51001 27.04479 30.12438
v -11.51001 27.29479 30.12436
v -13.51001 27.29479 30.12438
v -11.51001 27.29479 29.62436
v -13.51001 27.29479 29.62438
v -13.50998 24.29479 34.62438
v -13.50999 24.51709 34.12438
v -11.50998 24.29479 34.62436
v -11.50999 24.74904 33.62436
v -11.50999 24.51709 34.12436
v -13.50999 24.74904 33.62438
v -13.50999 24.97854 33.12438
v -11.50999 24.97854 33.12436
v -13.51 25.19788 32.62438
v -13.51 25.42603 32.12438
v -11.51 25.42603 32.12436
v -11.51 25.19788 32.62436
v -11.51 25.64614 31.62436
v -13.51 25.64614 31.62438
v -13.51 25.86596 31.12438
v -11.51 25.86596 31.12436
v -11.51001 26.10121 30.62436
v -13.51001 26.10121 30.62438
v -13.51001 26.324 30.12438
v -11.51001 26.324 30.12436
v -13.51001 26.54479 29.62438
v -11.51001 26.54479 29.62436

vt 1 -1
vt -1 -1
vt 1 -0.75
vt -1 -0.75
vt 1 -2.5
vt -1 -2.5
vt 1 -2
vt -1 -2
vt 1 -0.5
vt -1 -0.5
vt 1 -1.5
vt -1 -1.5
vt 1 -0.25
vt -1 -0.25
vt 1 0
vt -1 0
vt 1 0.25
vt -1 0.25
vt 1 0.5
vt -1 0.5
vt 1 0.75
vt -1 0.75
vt 1 1
vt -1 1
vt 1 1.5
vt -1 1.5
vt 1 1.25
vt -1 1.25
vt 1 2
vt -1 2
vt 1 2.5
vt -1 2.5
vt 2.5 -0.75
vt 2 -0.75
vt 2.5 -1.5
vt 2 -1.277702
vt -1.5 -0.5
vt -2 -0.5
vt -1.5 -1.045757
vt -2 -1.277702
vt 2 -0.5
vt 1.5 -0.5
vt 1.5 -1.045757
vt 1.5 -0.25
vt 1 -0.8162575
vt -1.5 -0.25
vt -1 -0.8162575
vt 0.5 0
vt 0.5 -0.5969124
vt 0.5 0.25
vt 0 0.25
vt 0 -0.368763
vt -0.5 0.25
vt -0.5 -0.5969124
vt -0.5 0
vt -2 -0.75
vt -2.5 -0.75
vt -2.5 -1.5
vt 0.5000001 0.5
vt 0 0.5
vt 0.5 -0.1486511
vt -0.5000001 0.5
vt -0.5 -0.1486511
vt -0.5000001 0.75
vt -1 0.07117081
vt 0.5000001 0.75
vt 1 0.07117081
vt 1.5 1
vt 1.5 0.3064156
vt -1.5 1
vt -1.5 0.3064156
vt -1.5 1.25
vt -2 1.25
vt -2 0.5292015
vt 2 1.25
vt 1.5 1.25
vt 2 0.5292015
vt -2 1.5
vt -2.5 1.5
vt -2.5 0.75
vt 2.5 1.5
vt 2 1.5
vt 2.5 0.75
vt -1 2.041021
vt -1 2.58759
vt 1 2.58759
vt 1 2.041021
vt -1 1.493637
vt 1 1.493637
vt -1 0.9411402
vt 1 0.9411402
vt -1 0.3949722
vt 1 0.3949722
vt -1 -0.1513149
vt 1 -0.1513149
vt -1 -0.7009
vt 1 -0.7009
vt -1 -1.246872
vt 1 -1.246872
vt -1 -1.797011
vt 1 -1.797011
vt -1 -2.348154
vt 1 -2.348154
vt 1 -2.895338
vt -1 -2.895338

vn 5.900858E-06 1.421085E-14 1
vn 0 1 -1.421085E-14
vn -1 5.421011E-20 5.900858E-06
vn 1 -5.421011E-20 -5.900858E-06
vn -5.900858E-06 -1.421085E-14 -1
vn -2.383724E-06 -0.9147757 -0.4039622
vn -2.401639E-06 -0.913429 -0.4069983
vn -2.512136E-06 -0.9048531 -0.4257239
vn -2.374892E-06 -0.9154352 -0.4024655
vn -2.377516E-06 -0.9152396 -0.4029101
vn -2.449591E-06 -0.9097646 -0.4151245
vn -2.370572E-06 -0.9157566 -0.4017335
vn -2.461573E-06 -0.9088354 -0.4171551
vn -2.397245E-06 -0.9137604 -0.4062536
vn -2.483176E-06 -0.907146 -0.420816

usemtl M_AggregateBuilding_1
f 3/3/1 4/4/1 2/2/1 1/1/1
f 5/7/2 6/8/2 4/6/2 3/5/2
f 7/9/1 8/10/1 6/4/1 5/3/1
f 9/11/2 10/12/2 8/8/2 7/7/2
f 11/13/1 12/14/1 10/10/1 9/9/1
f 13/1/2 14/2/2 12/12/2 11/11/2
f 15/15/1 16/16/1 14/14/1 13/13/1
f 17/9/2 18/10/2 16/2/2 15/1/2
f 19/17/1 20/18/1 18/16/1 17/15/1
f 21/15/2 22/16/2 20/10/2 19/9/2
f 23/19/1 24/20/1 22/18/1 21/17/1
f 25/19/2 26/20/2 24/16/2 23/15/2
f 27/21/1 28/22/1 26/20/1 25/19/1
f 29/23/2 30/24/2 28/20/2 27/19/2
f 31/23/1 32/24/1 30/22/1 29/21/1
f 33/25/2 34/26/2 32/24/2 31/23/2
f 35/27/1 36/28/1 34/24/1 33/23/1
f 37/29/2 38/30/2 36/26/2 35/25/2
f 39/25/1 40/26/1 38/28/1 37/27/1
f 41/31/2 42/32/2 40/30/2 39/29/2
f 44/36/3 43/35/3 4/33/3 6/34/3
f 43/12/1 45/11/1 1/1/1 2/2/1
f 47/40/4 46/39/4 9/37/4 7/38/4
f 48/43/3 44/36/3 8/41/3 10/42/3
f 49/45/3 48/43/3 12/44/3 14/13/3
f 46/39/4 50/47/4 13/14/4 11/46/4
f 51/49/3 49/45/3 16/15/3 18/48/3
f 52/52/3 51/49/3 20/50/3 22/51/3
f 54/54/4 53/52/4 21/51/4 19/53/4
f 50/47/4 54/54/4 17/55/4 15/16/4
f 45/58/4 47/40/4 5/56/4 3/57/4
f 53/52/4 55/61/4 25/59/4 23/60/4
f 56/63/3 52/52/3 24/60/3 26/62/3
f 57/65/3 56/63/3 28/64/3 30/22/3
f 55/61/4 58/67/4 29/21/4 27/66/4
f 58/67/4 59/69/4 33/68/4 31/23/4
f 60/71/3 57/65/3 32/24/3 34/70/3
f 61/74/3 60/71/3 36/72/3 38/73/3
f 59/69/4 62/77/4 37/75/4 35/76/4
f 63/80/3 61/74/3 40/78/3 42/79/3
f 64/22/5 63/21/5 42/25/5 41/26/5
f 62/77/4 64/83/4 41/81/4 39/82/4
f 61/87/6 63/86/6 64/85/6 62/84/6
f 60/89/7 61/87/7 62/84/7 59/88/7
f 57/91/8 60/89/8 59/88/8 58/90/8
f 56/93/9 57/91/9 58/90/9 55/92/9
f 52/95/10 56/93/10 55/92/10 53/94/10
f 51/97/11 52/95/11 53/94/11 54/96/11
f 49/99/12 51/97/12 54/96/12 50/98/12
f 48/101/13 49/99/13 50/98/13 46/100/13
f 43/104/14 44/103/14 47/102/14 45/105/14
f 44/103/15 48/101/15 46/100/15 47/102/15

