# ProBuilder 5.2.2
# https://unity3d.com/unity/features/worldbuilding/probuilder
# 27.09.2024 18:40:06

mtllib ./Stairs_(89).mtl
o Stairs (89)

g Stairs (89)
v -63.87811 71.98999 41.36914
v -63.87813 71.98999 39.36914
v -63.87811 72.23999 41.36914
v -63.87813 72.23999 39.36914
v -63.37811 72.23999 41.36913
v -63.37813 72.23999 39.36913
v -63.37811 72.48999 41.36913
v -63.37813 72.48999 39.36913
v -62.87811 72.48999 41.36913
v -62.87813 72.48999 39.36913
v -62.87811 72.73999 41.36913
v -62.87813 72.73999 39.36913
v -62.37811 72.73999 41.36912
v -62.37813 72.73999 39.36912
v -62.37811 72.98999 41.36912
v -62.37813 72.98999 39.36912
v -61.87811 72.98999 41.36912
v -61.87813 72.98999 39.36912
v -61.87811 73.23999 41.36912
v -61.87813 73.23999 39.36912
v -61.37811 73.23999 41.36911
v -61.37813 73.23999 39.36911
v -61.37811 73.48999 41.36911
v -61.37813 73.48999 39.36911
v -60.87811 73.48999 41.36911
v -60.87813 73.48999 39.36911
v -60.87811 73.73999 41.36911
v -60.87813 73.73999 39.36911
v -60.37811 73.73999 41.36911
v -60.37813 73.73999 39.36911
v -60.37811 73.98999 41.36911
v -60.37813 73.98999 39.36911
v -59.87811 73.98999 41.3691
v -59.87813 73.98999 39.3691
v -59.87811 74.23999 41.3691
v -59.87813 74.23999 39.3691
v -59.37811 74.23999 41.36909
v -59.37813 74.23999 39.36909
v -58.87811 74.23999 41.36909
v -58.87813 74.23999 39.36909
v -63.87813 71.83319 39.36913
v -63.37813 71.88103 39.36913
v -63.87811 71.83319 41.36913
v -62.87811 71.98999 41.36913
v -63.37811 71.88103 41.36913
v -62.87813 71.98999 39.36913
v -62.37813 72.23999 39.36912
v -62.37811 72.23999 41.36912
v -61.87813 72.48999 39.36912
v -61.37813 72.73999 39.36911
v -61.37811 72.73999 41.36911
v -61.87811 72.48999 41.36912
v -60.87811 72.98999 41.36911
v -60.87813 72.98999 39.36911
v -60.37813 73.23999 39.36911
v -60.37811 73.23999 41.36911
v -59.87811 73.48999 41.3691
v -59.87813 73.48999 39.3691
v -59.37813 73.73999 39.36909
v -59.37811 73.73999 41.36909
v -58.87813 73.98999 39.36909
v -58.87811 73.98999 41.36909

vt 1 -1
vt -1 -1
vt 1 -0.75
vt -1 -0.75
vt 1 -2.5
vt -1 -2.5
vt 1 -2
vt -1 -2
vt 1 -0.5
vt -1 -0.5
vt 1 -1.5
vt -1 -1.5
vt 1 -0.25
vt -1 -0.25
vt 1 0
vt -1 0
vt 1 0.25
vt -1 0.25
vt 1 0.5
vt -1 0.5
vt 1 0.75
vt -1 0.75
vt 1 1
vt -1 1
vt 1 1.5
vt -1 1.5
vt 1 1.25
vt -1 1.25
vt 1 2
vt -1 2
vt 0.9999999 2
vt 0.999999 2.5
vt -1.000001 2.499997
vt 2.5 -0.7500044
vt 2 -0.7500044
vt 2.499997 -1.156804
vt 1.999997 -1.108967
vt 1 -0.9999962
vt -1 -0.9999962
vt 0.9999984 -1.156796
vt -1.000002 -1.156796
vt -1.5 -0.5
vt -2 -0.5
vt -1.5 -1
vt -2 -1.108963
vt 2 -0.500002
vt 1.5 -0.500002
vt 1.5 -1.000002
vt 1.5 -0.25
vt -1.5 -0.25
vt 0.5 0
vt 0.5 -0.5
vt 0.5 0.25
vt 0 0.25
vt 0 -0.25
vt -0.5 0.25
vt -0.5 -0.5
vt -0.5 0
vt -2 -0.7499973
vt -2.5 -0.7499973
vt -2.5 -1.156797
vt 0.5000001 0.5
vt 0 0.5
vt -0.5000001 0.5
vt -0.5000001 0.75
vt 0.5000001 0.75
vt 1.5 1
vt 1.5 0.5
vt -1.5 1
vt -1.5 0.5
vt -1.5 1.25
vt -2 1.25
vt -2 0.75
vt 2 1.25
vt 1.5 1.25
vt 2 0.75
vt -2.499999 1.25
vt -2.500002 1
vt 0.9999968 1.249971
vt -1.000003 1.249971
vt 0.9999958 0.9999714
vt -1.000004 0.9999714
vt 2.499999 1.249996
vt 1.999999 1.249996
vt 2.499998 0.9999959
vt 1.999998 0.7499959
vt -1 2.133961
vt -1 2.691933
vt 1 2.691933
vt 1 2.133961
vt -1 1.57599
vt 1 1.57599
vt -1 1.018019
vt 1 1.018019
vt -1 0.4600474
vt 1 0.4600474
vt -1 -0.0979239
vt 1 -0.09792389
vt -1 -0.6558952
vt 1 -0.6558952
vt -1 -1.213867
vt 1 -1.213867
vt -1 -1.771838
vt 1 -1.771838
vt -0.999999 -2.274565
vt 1.000001 -2.274563
vt 1.000002 -2.753348
vt -0.9999984 -2.75335

vn -1 0 8.940697E-06
vn 0 1 -1.421085E-14
vn 0 0 0
vn -8.940697E-06 4.39563E-06 -1
vn 8.940697E-06 0 1
vn 1 1.144409E-05 -1.060963E-05
vn 0.4472136 -0.8944272 -3.998401E-06
vn 0.09523775 -0.9954545 -7.266063E-07
vn 0.2129291 -0.9770676 -1.764127E-06

usemtl M_AggregateBuilding_1
f 3/3/1 4/4/1 2/2/1 1/1/1
f 5/7/2 6/8/2 4/6/2 3/5/2
f 7/9/1 8/10/1 6/4/1 5/3/1
f 9/11/2 10/12/2 8/8/2 7/7/2
f 11/13/1 12/14/1 10/10/1 9/9/1
f 13/1/2 14/2/2 12/12/2 11/11/2
f 15/15/1 16/16/1 14/14/1 13/13/1
f 17/9/2 18/10/2 16/2/2 15/1/2
f 19/17/1 20/18/1 18/16/1 17/15/1
f 21/15/2 22/16/2 20/10/2 19/9/2
f 23/19/1 24/20/1 22/18/1 21/17/1
f 25/19/2 26/20/2 24/16/2 23/15/2
f 27/21/1 28/22/1 26/20/1 25/19/1
f 29/23/2 30/24/2 28/20/2 27/19/2
f 31/23/1 32/24/1 30/22/1 29/21/1
f 33/25/2 34/26/2 32/24/2 31/23/2
f 35/27/1 36/28/1 34/24/1 33/23/1
f 37/29/2 38/30/2 36/26/2 35/25/2
f 37/31/3 38/30/3 38/30/3 37/29/3
f 39/32/2 40/33/2 38/30/2 37/31/2
f 42/37/4 41/36/4 4/34/4 6/35/4
f 41/41/1 43/40/1 1/38/1 2/39/1
f 45/45/5 44/44/5 9/42/5 7/43/5
f 46/48/4 42/37/4 8/46/4 10/47/4
f 47/3/4 46/48/4 12/49/4 14/13/4
f 44/44/5 48/4/5 13/14/5 11/50/5
f 49/52/4 47/3/4 16/15/4 18/51/4
f 50/55/4 49/52/4 20/53/4 22/54/4
f 52/57/5 51/55/5 21/54/5 19/56/5
f 48/4/5 52/57/5 17/58/5 15/16/5
f 43/61/5 45/45/5 5/59/5 3/60/5
f 51/55/5 53/51/5 25/62/5 23/63/5
f 54/58/4 50/55/4 24/63/4 26/64/4
f 55/18/4 54/58/4 28/65/4 30/22/4
f 53/51/5 56/17/5 29/21/5 27/66/5
f 56/17/5 57/68/5 33/67/5 31/23/5
f 58/70/4 55/18/4 32/24/4 34/69/4
f 59/73/4 58/70/4 36/71/4 38/72/4
f 57/68/5 60/76/5 37/74/5 35/75/5
f 61/78/4 59/73/4 38/72/4 40/77/4
f 62/82/6 61/81/6 40/79/6 39/80/6
f 60/86/5 62/85/5 39/83/5 37/84/5
f 59/90/7 61/89/7 62/88/7 60/87/7
f 58/92/7 59/90/7 60/87/7 57/91/7
f 55/94/7 58/92/7 57/91/7 56/93/7
f 54/96/7 55/94/7 56/93/7 53/95/7
f 50/98/7 54/96/7 53/95/7 51/97/7
f 49/100/7 50/98/7 51/97/7 52/99/7
f 47/102/7 49/100/7 52/99/7 48/101/7
f 46/104/7 47/102/7 48/101/7 44/103/7
f 41/107/8 42/106/8 45/105/8 43/108/8
f 42/106/9 46/104/9 44/103/9 45/105/9

