# ProBuilder 5.2.2
# https://unity3d.com/unity/features/worldbuilding/probuilder
# 27.09.2024 18:40:06

mtllib ./Stairs_(95).mtl
o Stairs (95)

g Stairs (95)
v -6.249913 74.49999 55.24173
v -8.249912 74.49999 55.24177
v -6.249913 74.74999 55.24173
v -8.249912 74.74999 55.24177
v -6.249921 74.74999 54.74173
v -8.249922 74.74999 54.74177
v -6.249921 74.99999 54.74173
v -8.249922 74.99999 54.74177
v -6.24993 74.99999 54.24173
v -8.24993 74.99999 54.24177
v -6.24993 75.24999 54.24173
v -8.24993 75.24999 54.24177
v -6.249939 75.24999 53.74173
v -8.249939 75.24999 53.74177
v -6.249939 75.49999 53.74173
v -8.249939 75.49999 53.74177
v -6.249948 75.49999 53.24173
v -8.249948 75.49999 53.24177
v -6.249948 75.74999 53.24173
v -8.249948 75.74999 53.24177
v -6.249956 75.74999 52.74173
v -8.249956 75.74999 52.74177
v -6.249956 75.99999 52.74173
v -8.249956 75.99999 52.74177
v -6.249965 75.99999 52.24173
v -8.249965 75.99999 52.24177
v -6.249965 76.24999 52.24173
v -8.249965 76.24999 52.24177
v -6.249973 76.24999 51.74173
v -8.249973 76.24999 51.74177
v -6.249973 76.49999 51.74173
v -8.249973 76.49999 51.74177
v -6.249982 76.49999 51.24173
v -8.249982 76.49999 51.24177
v -6.249982 76.74999 51.24173
v -8.249982 76.74999 51.24177
v -6.249991 76.74999 50.74173
v -8.24999 76.74999 50.74177
v -6.25 76.74999 50.24173
v -8.250001 76.74999 50.24177
v -8.249912 74.2126 55.24177
v -8.249922 74.24999 54.74177
v -6.249912 74.2126 55.24174
v -6.24993 74.49999 54.24173
v -6.249921 74.24999 54.74173
v -8.24993 74.49999 54.24177
v -8.249939 74.74999 53.74177
v -6.249939 74.74999 53.74173
v -8.249948 74.99999 53.24177
v -8.249956 75.24999 52.74177
v -6.249956 75.24999 52.74173
v -6.249948 74.99999 53.24173
v -6.249964 75.19769 52.24174
v -8.249965 75.19769 52.24177
v -8.249973 75.2213 51.74177
v -6.249973 75.2213 51.74174
v -6.249982 75.24153 51.24174
v -8.249982 75.24153 51.24177
v -8.24999 75.22771 50.74177
v -6.249991 75.22771 50.74174
v -8.25 75.20415 50.24177
v -6.25 75.20415 50.24174

vt 1 -1
vt -1 -1
vt 1 -0.75
vt -1 -0.75
vt 1 -2.5
vt -1 -2.5
vt 1 -2
vt -1 -2
vt 1 -0.5
vt -1 -0.5
vt 1 -1.5
vt -1 -1.5
vt 1 -0.25
vt -1 -0.25
vt 1 0
vt -1 0
vt 1 0.25
vt -1 0.25
vt 1 0.5
vt -1 0.5
vt 1 0.75
vt -1 0.75
vt 1 1
vt -1 1
vt 1 1.5
vt -1 1.5
vt 1 1.25
vt -1 1.25
vt 1 2
vt -1 2
vt 0.9999999 2
vt 0.999999 2.5
vt -1.000001 2.499997
vt 2.5 -0.7499995
vt 2 -0.7499995
vt 2.500001 -1.287391
vt 2 -1.249999
vt 1 -1.287406
vt -0.9999997 -1.287406
vt -1.5 -0.5
vt -2 -0.5
vt -1.5 -1
vt -2 -1.25
vt 2 -0.5
vt 1.5 -0.5
vt 2 -1.25
vt 1.5 -1
vt 1.5 -0.25
vt -1.5 -0.25
vt 0.5 0
vt 0.5 -0.5
vt 0.5 0.25
vt 0 0.25
vt 0 -0.25
vt -0.5 0.25
vt -0.5 -0.5
vt -0.5 0
vt -2 -0.75
vt -2.5 -0.75
vt -2.500002 -1.287392
vt 0.5000001 0.4999996
vt 0 0.4999996
vt 0.4999982 -0.3022999
vt 0 0.5
vt -0.5000001 0.5
vt -0.4999989 -0.3022995
vt -0.5000001 0.7500003
vt -0.999997 -0.2786939
vt 1 0.7499995
vt 0.5000001 0.7499995
vt 0.9999964 -0.2786946
vt 1.5 1
vt 1.499998 -0.2584608
vt -1.5 1
vt -1.499999 -0.258461
vt -1.5 1.25
vt -2 1.25
vt -1.999999 -0.2722853
vt 2 1.25
vt 1.5 1.25
vt 1.999998 -0.2722853
vt -2.499999 1.25
vt -2 -0.2722852
vt -2.5 -0.2958371
vt 0.9999968 1.249997
vt -1.000003 1.249997
vt 0.9999958 -0.2958401
vt -1.000004 -0.2958401
vt 2.499999 1.249999
vt 1.999999 1.249999
vt 2.499997 -0.2958381
vt -0.9999998 1.916931
vt -1 2.404274
vt 1 2.404274
vt 0.9999997 1.916931
vt -0.9999997 1.427815
vt 0.9999998 1.427816
vt -1 0.9324942
vt 1 0.9324948
vt -1 0.4365623
vt 0.9999997 0.4365629
vt -1 -0.04554225
vt 1 -0.04554225
vt -1 -0.5827181
vt 1 -0.5827181
vt -1 -1.119894
vt 1 -1.119894
vt -1 -1.65707
vt 1 -1.65707
vt -1 -2.194246
vt 1 -2.194246
vt 0.9999997 -2.692692
vt -1 -2.692693

vn 1.737475E-05 1.421085E-14 1
vn 0 1 -1.421085E-14
vn 0 0 0
vn -1 -5.545736E-07 1.737475E-05
vn 1 -2.168404E-19 -1.737475E-05
vn -1.904368E-05 1.079627E-06 -1
vn 8.034895E-07 -0.9988924 0.04705171
vn 4.703255E-07 -0.999618 0.02763836
vn -6.886571E-07 -0.9991823 -0.04043306
vn -8.039049E-07 -0.9988874 -0.04715835
vn 1.790474E-06 -0.994574 0.1040317
vn -7.770226E-06 -0.8944272 -0.4472136
vn -1.295719E-06 -0.9972154 -0.07457484

usemtl M_AggregateBuilding_1
f 3/3/1 4/4/1 2/2/1 1/1/1
f 5/7/2 6/8/2 4/6/2 3/5/2
f 7/9/1 8/10/1 6/4/1 5/3/1
f 9/11/2 10/12/2 8/8/2 7/7/2
f 11/13/1 12/14/1 10/10/1 9/9/1
f 13/1/2 14/2/2 12/12/2 11/11/2
f 15/15/1 16/16/1 14/14/1 13/13/1
f 17/9/2 18/10/2 16/2/2 15/1/2
f 19/17/1 20/18/1 18/16/1 17/15/1
f 21/15/2 22/16/2 20/10/2 19/9/2
f 23/19/1 24/20/1 22/18/1 21/17/1
f 25/19/2 26/20/2 24/16/2 23/15/2
f 27/21/1 28/22/1 26/20/1 25/19/1
f 29/23/2 30/24/2 28/20/2 27/19/2
f 31/23/1 32/24/1 30/22/1 29/21/1
f 33/25/2 34/26/2 32/24/2 31/23/2
f 35/27/1 36/28/1 34/24/1 33/23/1
f 37/29/2 38/30/2 36/26/2 35/25/2
f 37/31/3 38/30/3 38/30/3 37/29/3
f 39/32/2 40/33/2 38/30/2 37/31/2
f 42/37/4 41/36/4 4/34/4 6/35/4
f 41/39/1 43/38/1 1/1/1 2/2/1
f 45/43/5 44/42/5 9/40/5 7/41/5
f 46/47/4 42/46/4 8/44/4 10/45/4
f 47/3/4 46/47/4 12/48/4 14/13/4
f 44/42/5 48/4/5 13/14/5 11/49/5
f 49/51/4 47/3/4 16/15/4 18/50/4
f 50/54/4 49/51/4 20/52/4 22/53/4
f 52/56/5 51/54/5 21/53/5 19/55/5
f 48/4/5 52/56/5 17/57/5 15/16/5
f 43/60/5 45/43/5 5/58/5 3/59/5
f 51/54/5 53/63/5 25/61/5 23/62/5
f 54/66/4 50/54/4 24/64/4 26/65/4
f 55/68/4 54/66/4 28/67/4 30/22/4
f 53/63/5 56/71/5 29/69/5 27/70/5
f 56/71/5 57/73/5 33/72/5 31/23/5
f 58/75/4 55/68/4 32/24/4 34/74/4
f 59/78/4 58/75/4 36/76/4 38/77/4
f 57/73/5 60/81/5 37/79/5 35/80/5
f 61/84/4 59/83/4 38/77/4 40/82/4
f 62/88/6 61/87/6 40/85/6 39/86/6
f 60/81/5 62/91/5 39/89/5 37/90/5
f 59/95/7 61/94/7 62/93/7 60/92/7
f 58/97/8 59/95/8 60/92/8 57/96/8
f 55/99/9 58/97/9 57/96/9 56/98/9
f 54/101/10 55/99/10 56/98/10 53/100/10
f 50/103/11 54/101/11 53/100/11 51/102/11
f 49/105/12 50/103/12 51/102/12 52/104/12
f 47/107/12 49/105/12 52/104/12 48/106/12
f 46/109/12 47/107/12 48/106/12 44/108/12
f 41/112/13 42/111/13 45/110/13 43/113/13
f 42/111/12 46/109/12 44/108/12 45/110/12

