# ProBuilder 5.2.2
# https://unity3d.com/unity/features/worldbuilding/probuilder
# 27.09.2024 18:40:06

mtllib ./Stairs_(88).mtl
o Stairs (88)

g Stairs (88)
v -3.693757 39.56 14.62438
v -1.026791 39.56 14.62438
v -3.693757 39.81 14.62438
v -1.516609 39.81 14.62438
v -3.693758 39.81 15.12438
v -1.516609 39.81 15.12438
v -3.693758 40.06 15.12438
v -1.516609 40.06 15.12438
v -3.69376 40.06 15.62438
v -1.516609 40.06 15.62438
v -3.69376 40.31 15.62438
v -1.516609 40.31 15.62438
v -3.693754 40.31 16.12438
v -1.516609 40.31 16.12438
v -3.693754 40.56 16.12438
v -1.516609 40.56 16.12438
v -3.693755 40.56 16.62438
v -1.516609 40.56 16.62438
v -3.693755 40.81 16.62438
v -1.516609 40.81 16.62438
v -3.693757 40.81 17.12438
v -1.516609 40.81 17.12438
v -3.693757 41.06 17.12438
v -1.516609 41.06 17.12438
v -3.693758 41.06 17.62438
v -1.516609 41.06 17.62438
v -3.693758 41.31 17.62438
v -1.516609 41.31 17.62438
v -3.693759 41.31 18.12438
v -1.516609 41.31 18.12438
v -3.693759 41.56 18.12438
v -1.516609 41.56 18.12438
v -3.693753 41.56 18.62438
v -1.516609 41.56 18.62438
v -3.693753 41.81 18.62438
v -1.516609 41.81 18.62438
v -3.693755 41.81 19.12438
v -1.516609 41.81 19.12438
v -3.693756 41.81 19.62438
v -1.516608 41.81 19.62438
v -1.516609 39.06 14.62438
v -1.516609 39.31 15.12438
v -3.693757 39.06 14.62438
v -3.69376 39.56 15.62438
v -3.693758 39.31 15.12438
v -1.516609 39.56 15.62438
v -1.516609 39.81 16.12438
v -3.693754 39.81 16.12438
v -1.516609 40.06 16.62438
v -1.516609 39.73262 17.12438
v -3.693757 39.73262 17.12438
v -3.693755 40.06 16.62438
v -3.693758 39.98262 17.62438
v -1.516609 39.98262 17.62438
v -1.516609 39.49958 18.12438
v -3.693759 39.49958 18.12438
v -3.693753 39.74958 18.62438
v -1.516609 39.74958 18.62438
v -1.516609 39.99958 19.12438
v -3.693755 39.99958 19.12438
v -1.516609 40.24958 19.62438
v -3.693756 40.24958 19.62438

vt 1.66697 -1
vt -0.9999964 -1
vt 1.66697 -0.75
vt -0.5101781 -0.75
vt 1.666966 -2.500004
vt -0.5101817 -2.5
vt 1.666968 -2.000004
vt -0.5101818 -2
vt 1.666971 -0.5
vt -0.5101785 -0.5
vt 1.666969 -1.500004
vt -0.5101818 -1.5
vt 1.666972 -0.25
vt -0.5101793 -0.25
vt -0.5101818 -1
vt 1.666965 0
vt -0.5101801 0
vt 1.666965 0.25
vt -0.510181 0.25
vt 1.666966 0.5
vt -0.5101817 0.5
vt 1.666967 0.4999967
vt -0.5101817 0.4999999
vt 1.666967 0.75
vt -0.5101825 0.75
vt 1.666969 0.9999967
vt -0.5101817 0.9999999
vt 1.666967 1
vt -0.5101832 1
vt 1.666963 1.499997
vt -0.5101817 1.5
vt 1.66696 1.25
vt -0.5101839 1.25
vt 1.666964 1.999997
vt -0.5101817 2
vt -0.5101818 1.999996
vt 1.666966 2.499997
vt -0.5101827 2.499996
vt 2.5 -0.75
vt 2 -0.75
vt 2.5 -1.5
vt 2 -1.25
vt -1.499999 -0.5
vt -1.999999 -0.5
vt -1.499999 -1
vt -1.999999 -1.25
vt 2 -0.5
vt 1.5 -0.5
vt 2 -1.25
vt 1.5 -1
vt 1.5 -0.25
vt 1 -0.25
vt 1 -0.75
vt -1.000024 -0.25
vt -1.500024 -0.25
vt -1.000024 -0.75
vt -1.500024 -1
vt 1 0
vt 0.5000001 0
vt 0.5000001 -0.5
vt 0.5000001 0.25
vt 1.060169E-07 0.25
vt 1.060168E-07 -0.8273773
vt -0.4999983 0.25
vt -0.4999983 -0.5
vt -0.4999987 0
vt -0.9999988 0
vt -0.9999988 -0.75
vt -1.999998 -0.75
vt -2.499999 -0.75
vt -2.499999 -1.5
vt 0.5000014 0.5
vt 1.360907E-06 0.5
vt 0.5000008 -0.5773773
vt -0.4999999 0.5000001
vt -0.4999999 -0.5773773
vt -0.4999999 0.75
vt -0.9999999 0.75
vt -0.9999999 -1.060413
vt 1.000002 0.7499999
vt 0.5000014 0.7499999
vt 1.000001 -1.060413
vt 1.499976 0.9999999
vt 0.999976 0.9999999
vt 1.499975 -0.8104135
vt 0.9999754 -1.060413
vt -0.9999999 1
vt -1.5 1
vt -1.5 -0.8104134
vt -1.5 1.25
vt -2 1.25
vt -1.5 -0.8104134
vt -2 -0.5604134
vt 2.000002 1.25
vt 1.500002 1.25
vt 2.000001 -0.5604134
vt 1.500001 -0.8104134
vt -2.499997 1.25
vt -2.000001 -0.5604132
vt -2.500001 -0.3104133
vt 0.5101819 1.249994
vt -1.666966 1.249994
vt 0.510181 -0.3104195
vt -1.666966 -0.3104195
vt 2.500002 1.25
vt 2.500001 -0.3104134
vt -1.666964 1.786694
vt -1.666965 2.334373
vt 0.5101819 2.334377
vt 0.5101817 1.786698
vt -1.666962 1.239014
vt 0.5101821 1.239018
vt -1.666968 0.6913353
vt 0.5101822 0.6913393
vt -1.666967 0.3334523
vt 0.510182 0.3334563
vt -1.666966 -0.2142268
vt 0.510182 -0.2142228
vt -1.666964 -0.6124122
vt 0.510182 -0.6124086
vt -1.666963 -1.160091
vt 0.5101821 -1.160088
vt -1.666969 -1.70777
vt 0.5101822 -1.707767
vt -1.666967 -2.25545
vt 0.5101823 -2.255446
vt 0.5101824 -2.803125
vt -1.666965 -2.803129

vn 1.400549E-06 -1.421085E-14 -1
vn 0 1 -1.421085E-14
vn 0 0 0
vn 1 -1.694066E-21 -1.490116E-07
vn -1 -4.065758E-20 -2.831221E-06
vn 3.58331E-07 2.444671E-06 1
vn -7.825029E-07 -0.8944272 0.4472136
vn 1.215712E-06 -0.719202 -0.694801
vn 8.991468E-07 -0.8366212 -0.5477819

usemtl M_AggregateBuilding_1
f 3/3/1 4/4/1 2/2/1 1/1/1
f 5/7/2 6/8/2 4/6/2 3/5/2
f 7/9/1 8/10/1 6/4/1 5/3/1
f 9/11/2 10/12/2 8/8/2 7/7/2
f 11/13/1 12/14/1 10/10/1 9/9/1
f 13/1/2 14/15/2 12/12/2 11/11/2
f 15/16/1 16/17/1 14/14/1 13/13/1
f 17/9/2 18/10/2 16/15/2 15/1/2
f 19/18/1 20/19/1 18/17/1 17/16/1
f 21/16/2 22/17/2 20/10/2 19/9/2
f 23/20/1 24/21/1 22/19/1 21/18/1
f 25/22/2 26/23/2 24/17/2 23/16/2
f 27/24/1 28/25/1 26/21/1 25/20/1
f 29/26/2 30/27/2 28/23/2 27/22/2
f 31/28/1 32/29/1 30/25/1 29/24/1
f 33/30/2 34/31/2 32/27/2 31/26/2
f 35/32/1 36/33/1 34/29/1 33/28/1
f 37/34/2 38/35/2 36/31/2 35/30/2
f 37/34/3 38/36/3 38/35/3 37/34/3
f 39/37/2 40/38/2 38/36/2 37/34/2
f 42/42/4 41/41/4 4/39/4 6/40/4
f 41/12/1 43/11/1 1/1/1 2/2/1
f 45/46/5 44/45/5 9/43/5 7/44/5
f 46/50/4 42/49/4 8/47/4 10/48/4
f 47/53/4 46/50/4 12/51/4 14/52/4
f 44/57/5 48/56/5 13/54/5 11/55/5
f 49/60/4 47/53/4 16/58/4 18/59/4
f 50/63/4 49/60/4 20/61/4 22/62/4
f 52/65/5 51/63/5 21/62/5 19/64/5
f 48/68/5 52/65/5 17/66/5 15/67/5
f 43/71/5 45/46/5 5/69/5 3/70/5
f 51/63/5 53/74/5 25/72/5 23/73/5
f 54/76/4 50/63/4 24/73/4 26/75/4
f 55/79/4 54/76/4 28/77/4 30/78/4
f 53/74/5 56/82/5 29/80/5 27/81/5
f 56/86/5 57/85/5 33/83/5 31/84/5
f 58/89/4 55/79/4 32/87/4 34/88/4
f 59/93/4 58/92/4 36/90/4 38/91/4
f 57/97/5 60/96/5 37/94/5 35/95/5
f 61/100/4 59/99/4 38/91/4 40/98/4
f 62/104/6 61/103/6 40/101/6 39/102/6
f 60/96/5 62/106/5 39/105/5 37/94/5
f 59/110/7 61/109/7 62/108/7 60/107/7
f 58/112/7 59/110/7 60/107/7 57/111/7
f 55/114/7 58/112/7 57/111/7 56/113/7
f 54/116/8 55/114/8 56/113/8 53/115/8
f 50/118/7 54/116/7 53/115/7 51/117/7
f 49/120/9 50/118/9 51/117/9 52/119/9
f 47/122/7 49/120/7 52/119/7 48/121/7
f 46/124/7 47/122/7 48/121/7 44/123/7
f 41/127/7 42/126/7 45/125/7 43/128/7
f 42/126/7 46/124/7 44/123/7 45/125/7

