# ProBuilder 5.2.2
# https://unity3d.com/unity/features/worldbuilding/probuilder
# 27.09.2024 18:40:06

mtllib ./Stairs_(100).mtl
o Stairs (100)

g Stairs (100)
v -67.38697 0.05190039 23.47136
v -64.72 0.05190039 23.47137
v -67.38697 0.3019004 23.47136
v -64.72 0.3019004 23.47137
v -67.38697 0.3019004 23.97136
v -64.72 0.3019004 23.97137
v -67.38697 0.5519004 23.97136
v -64.72 0.5519004 23.97137
v -67.38697 0.5519004 24.47136
v -64.72 0.5519004 24.47137
v -67.38697 0.8019004 24.47136
v -64.72 0.8019004 24.47137
v -67.38696 0.8019004 24.97136
v -64.72 0.8019004 24.97137
v -67.38696 1.0519 24.97136
v -64.72 1.0519 24.97137
v -67.38696 1.0519 25.47136
v -64.72 1.0519 25.47137
v -67.38696 1.3019 25.47136
v -64.72 1.3019 25.47137
v -67.38697 1.3019 25.97136
v -64.72 1.3019 25.97137
v -67.38697 1.5519 25.97136
v -64.72 1.5519 25.97137
v -67.38697 1.5519 26.47136
v -64.72 1.5519 26.47137
v -67.38697 1.8019 26.47136
v -64.72 1.8019 26.47137
v -67.38697 1.8019 26.97136
v -64.72 1.8019 26.97137
v -67.38697 2.0519 26.97136
v -64.72 2.0519 26.97137
v -67.38696 2.0519 27.47136
v -64.72 2.0519 27.47137
v -67.38696 2.3019 27.47136
v -64.72 2.3019 27.47137
v -67.38696 2.3019 27.97136
v -64.72 2.3019 27.97137
v -67.38697 2.3019 28.47136
v -64.72 2.3019 28.47136
v -64.72 -0.4480996 23.47137
v -64.72 -0.1980996 23.97137
v -67.38697 -0.4480996 23.47136
v -67.38697 0.05190039 24.47136
v -67.38697 -0.1980996 23.97136
v -64.72 0.05190039 24.47137
v -64.72 0.3019004 24.97137
v -67.38696 0.3019004 24.97136
v -64.72 0.5519004 25.47137
v -64.72 0.8019004 25.97137
v -67.38697 0.8019004 25.97136
v -67.38696 0.5519004 25.47136
v -67.38697 1.0519 26.47136
v -64.72 1.0519 26.47137
v -64.72 1.3019 26.97137
v -67.38697 1.3019 26.97136
v -67.38696 1.5519 27.47136
v -64.72 1.5519 27.47137
v -64.72 1.8019 27.97137
v -67.38696 1.8019 27.97136
v -64.72 2.0519 28.47137
v -67.38697 2.0519 28.47136

vt 1.66697 -1
vt -0.9999964 -1
vt 1.66697 -0.75
vt -0.9999964 -0.75
vt 1.666966 -2.500004
vt -1 -2.5
vt 1.666968 -2.000004
vt -1 -2
vt 1.66697 -0.5
vt -0.9999973 -0.5
vt 1.666969 -1.500004
vt -1 -1.5
vt 1.666971 -0.25
vt -0.999998 -0.25
vt -1 -1
vt 1.666964 0
vt -0.9999987 0
vt -1 -0.5
vt 1.666965 0.25
vt -0.9999993 0.25
vt -1 0
vt -1 0.25
vt 1.666966 0.5
vt -1 0.5
vt 1.666967 0.4999967
vt 1.666967 0.75
vt -1.000001 0.75
vt 1.666969 0.9999967
vt -1 1
vt 1.666968 1
vt 1.666963 1.499997
vt -1 1.5
vt 1.666961 1.25
vt -1.000002 1.25
vt 1.666964 1.999997
vt -1 2
vt 1.666966 2.499997
vt -1.000001 2.499997
vt 2.5 -0.75
vt 2 -0.75
vt 2.5 -1.5
vt 2 -1.25
vt -0.9999964 -1.5
vt -1.499999 -0.5
vt -1.999999 -0.5
vt -1.499999 -1
vt -1.999999 -1.25
vt 2 -0.5
vt 1.5 -0.5
vt 1.5 -1
vt 1.5 -0.25
vt 1 -0.25
vt 1 -0.75
vt -1.000024 -0.25
vt -1.500024 -0.25
vt -1.000024 -0.75
vt -1.500024 -1
vt 1 0
vt 0.5 0
vt 0.5 -0.5
vt 0.5 0.25
vt 0 0.25
vt 0 -0.25
vt -0.4999983 0.25
vt -0.4999983 -0.5
vt -0.4999987 0
vt -1.999998 -0.75
vt -2.499999 -0.75
vt -2.499999 -1.5
vt 0.5000014 0.5
vt 1.360907E-06 0.5
vt -0.5000001 0.5
vt -0.5 0
vt -0.5000001 0.75
vt 1.000002 0.75
vt 0.5000014 0.75
vt 1.000002 0.25
vt 1.499976 1
vt 0.999976 1
vt 1.499976 0.5
vt 0.999976 0.25
vt -1.5 1
vt -1.5 0.5
vt -1.5 1.25
vt -2 1.25
vt -2 0.75
vt 2.000002 1.25
vt 1.500002 1.25
vt 2.000002 0.75
vt 1.500002 0.5
vt -2.499999 1.25
vt -2.500002 1
vt 1.000001 1.249971
vt -1.666965 1.249971
vt 1 0.9999714
vt -1.666965 0.9999714
vt 2.500002 1.25
vt 2.500002 1
vt -1.666965 2.124261
vt -1.666966 2.683278
vt 0.9999993 2.683282
vt 0.9999995 2.124265
vt -1.666963 1.565244
vt 0.9999997 1.565248
vt -1.666969 1.006227
vt 0.9999998 1.006231
vt -1.666967 0.4472101
vt 1 0.4472139
vt -1.666966 -0.1118069
vt 1 -0.1118031
vt -1.666964 -0.6708239
vt 1 -0.6708201
vt -1.666963 -1.229841
vt 1 -1.229837
vt -1.666969 -1.788858
vt 1.000001 -1.788854
vt -1.666967 -2.347875
vt 1.000001 -2.347871
vt 1.000001 -2.906888
vt -1.666965 -2.906892

vn 1.400549E-06 -1.421085E-14 -1
vn 0 1 -1.421085E-14
vn 0 0 0
vn 1 0 -2.980232E-08
vn -1 -4.065758E-20 -2.831221E-06
vn -5.95946E-08 1.144409E-05 1
vn -5.164009E-07 -0.8944272 0.4472135

usemtl M_AggregateBuilding_1
f 3/3/1 4/4/1 2/2/1 1/1/1
f 5/7/2 6/8/2 4/6/2 3/5/2
f 7/9/1 8/10/1 6/4/1 5/3/1
f 9/11/2 10/12/2 8/8/2 7/7/2
f 11/13/1 12/14/1 10/10/1 9/9/1
f 13/1/2 14/15/2 12/12/2 11/11/2
f 15/16/1 16/17/1 14/14/1 13/13/1
f 17/9/2 18/18/2 16/15/2 15/1/2
f 19/19/1 20/20/1 18/17/1 17/16/1
f 21/16/2 22/21/2 20/18/2 19/9/2
f 23/23/1 24/24/1 22/22/1 21/19/1
f 25/25/2 26/24/2 24/21/2 23/16/2
f 27/26/1 28/27/1 26/24/1 25/23/1
f 29/28/2 30/29/2 28/24/2 27/25/2
f 31/30/1 32/29/1 30/27/1 29/26/1
f 33/31/2 34/32/2 32/29/2 31/28/2
f 35/33/1 36/34/1 34/29/1 33/30/1
f 37/35/2 38/36/2 36/32/2 35/31/2
f 37/35/3 38/36/3 38/36/3 37/35/3
f 39/37/2 40/38/2 38/36/2 37/35/2
f 42/42/4 41/41/4 4/39/4 6/40/4
f 41/43/1 43/11/1 1/1/1 2/2/1
f 45/47/5 44/46/5 9/44/5 7/45/5
f 46/50/4 42/42/4 8/48/4 10/49/4
f 47/53/4 46/50/4 12/51/4 14/52/4
f 44/57/5 48/56/5 13/54/5 11/55/5
f 49/60/4 47/53/4 16/58/4 18/59/4
f 50/63/4 49/60/4 20/61/4 22/62/4
f 52/65/5 51/63/5 21/62/5 19/64/5
f 48/4/5 52/65/5 17/66/5 15/17/5
f 43/69/5 45/47/5 5/67/5 3/68/5
f 51/63/5 53/59/5 25/70/5 23/71/5
f 54/73/4 50/63/4 24/71/4 26/72/4
f 55/22/4 54/73/4 28/74/4 30/27/4
f 53/59/5 56/77/5 29/75/5 27/76/5
f 56/81/5 57/80/5 33/78/5 31/79/5
f 58/83/4 55/22/4 32/29/4 34/82/4
f 59/86/4 58/83/4 36/84/4 38/85/4
f 57/90/5 60/89/5 37/87/5 35/88/5
f 61/92/4 59/86/4 38/85/4 40/91/4
f 62/96/6 61/95/6 40/93/6 39/94/6
f 60/89/5 62/98/5 39/97/5 37/87/5
f 59/102/7 61/101/7 62/100/7 60/99/7
f 58/104/7 59/102/7 60/99/7 57/103/7
f 55/106/7 58/104/7 57/103/7 56/105/7
f 54/108/7 55/106/7 56/105/7 53/107/7
f 50/110/7 54/108/7 53/107/7 51/109/7
f 49/112/7 50/110/7 51/109/7 52/111/7
f 47/114/7 49/112/7 52/111/7 48/113/7
f 46/116/7 47/114/7 48/113/7 44/115/7
f 41/119/7 42/118/7 45/117/7 43/120/7
f 42/118/7 46/116/7 44/115/7 45/117/7

