# ProBuilder 5.2.2
# https://unity3d.com/unity/features/worldbuilding/probuilder
# 27.09.2024 18:06:12

mtllib ./RingsTransform.mtl
o RingsTransform

g Pipe (2)
v -0.3905953 0.03262904 -0.2437247
v -0.3996414 0.03262904 -0.2950277
v -0.3905953 0.08262903 -0.2437247
v -0.3996414 0.08262903 -0.2950277
v -0.3696414 0.03262904 -0.2950277
v -0.3624045 0.03262904 -0.2539853
v -0.3696414 0.08262903 -0.2950277
v -0.3624045 0.08262903 -0.2539853
v -0.3645481 0.03262904 -0.1986096
v -0.3645481 0.08262903 -0.1986096
v -0.3415667 0.03262904 -0.2178932
v -0.3415667 0.08262903 -0.2178932
v -0.3246414 0.03262904 -0.1651239
v -0.3246414 0.08262903 -0.1651239
v -0.3096414 0.03262904 -0.1911047
v -0.3096414 0.08262903 -0.1911047
v -0.2756886 0.03262904 -0.1473066
v -0.2756886 0.08262903 -0.1473066
v -0.2704792 0.03262904 -0.1768508
v -0.2704792 0.08262903 -0.1768508
v -0.2235942 0.03262904 -0.1473066
v -0.2235942 0.08262903 -0.1473066
v -0.2288036 0.03262904 -0.1768508
v -0.2288036 0.08262903 -0.1768508
v -0.1746414 0.03262904 -0.1651239
v -0.1746414 0.08262903 -0.1651239
v -0.1896414 0.03262904 -0.1911047
v -0.1896414 0.08262903 -0.1911047
v -0.1347347 0.03262904 -0.1986096
v -0.1347347 0.08262903 -0.1986096
v -0.1577161 0.03262904 -0.2178932
v -0.1577161 0.08262903 -0.2178932
v -0.1086875 0.03262904 -0.2437247
v -0.1086875 0.08262903 -0.2437247
v -0.1368783 0.03262904 -0.2539853
v -0.1368783 0.08262903 -0.2539853
v -0.09964141 0.03262904 -0.2950277
v -0.09964141 0.08262903 -0.2950277
v -0.1296414 0.03262904 -0.2950277
v -0.1296414 0.08262903 -0.2950277
v -0.1086875 0.03262904 -0.3463308
v -0.1086875 0.08262903 -0.3463308
v -0.1368783 0.03262904 -0.3360702
v -0.1368783 0.08262903 -0.3360702
v -0.1347347 0.03262904 -0.3914459
v -0.1347347 0.08262903 -0.3914459
v -0.1577161 0.03262904 -0.3721623
v -0.1577161 0.08262903 -0.3721623
v -0.1746414 0.03262904 -0.4249316
v -0.1746414 0.08262903 -0.4249316
v -0.1896414 0.03262904 -0.3989508
v -0.1896414 0.08262903 -0.3989508
v -0.2235942 0.03262904 -0.4427489
v -0.2235942 0.08262903 -0.4427489
v -0.2288036 0.03262904 -0.4132047
v -0.2288036 0.08262903 -0.4132047
v -0.2756886 0.03262904 -0.4427489
v -0.2756886 0.08262903 -0.4427489
v -0.2704792 0.03262904 -0.4132047
v -0.2704792 0.08262903 -0.4132047
v -0.3246414 0.03262904 -0.4249316
v -0.3246414 0.08262903 -0.4249316
v -0.3096414 0.03262904 -0.3989508
v -0.3096414 0.08262903 -0.3989508
v -0.3645481 0.03262904 -0.3914459
v -0.3645481 0.08262903 -0.3914459
v -0.3415667 0.03262904 -0.3721623
v -0.3415667 0.08262903 -0.3721623
v -0.3905953 0.03262904 -0.3463308
v -0.3905953 0.08262903 -0.3463308
v -0.3624045 0.03262904 -0.3360702
v -0.3624045 0.08262903 -0.3360702
v -0.3905945 0.03263146 -0.9437246
v -0.3996429 0.03263152 -0.9950275
v -0.3905945 0.08262682 -0.9437246
v -0.3996429 0.08262694 -0.9950275
v -0.3696442 0.03263152 -0.9950275
v -0.3624039 0.03263152 -0.9539852
v -0.3696442 0.08262694 -0.9950275
v -0.3624039 0.08262694 -0.9539852
v -0.3645477 0.03263146 -0.8986096
v -0.3645477 0.08262688 -0.8986096
v -0.341568 0.03263146 -0.9178929
v -0.341568 0.08262682 -0.9178929
v -0.3246384 0.03263146 -0.8651237
v -0.3246384 0.08262688 -0.8651237
v -0.309639 0.03263146 -0.8911047
v -0.309639 0.08262688 -0.8911046
v -0.2756882 0.0326314 -0.8473063
v -0.2756882 0.08262682 -0.8473062
v -0.2704773 0.03263146 -0.8768506
v -0.2704773 0.08262688 -0.8768505
v -0.2235947 0.0326314 -0.8473063
v -0.2235947 0.08262682 -0.8473062
v -0.2288055 0.03263146 -0.8768506
v -0.2288055 0.08262688 -0.8768505
v -0.1746445 0.03263146 -0.8651237
v -0.1746445 0.08262688 -0.8651237
v -0.1896439 0.03263146 -0.8911047
v -0.1896439 0.08262688 -0.8911046
v -0.1347351 0.03263146 -0.8986096
v -0.1347351 0.08262688 -0.8986096
v -0.1577148 0.03263146 -0.9178929
v -0.1577148 0.08262682 -0.9178929
v -0.1086884 0.03263146 -0.9437246
v -0.1086884 0.08262682 -0.9437246
v -0.136879 0.03263152 -0.9539852
v -0.136879 0.08262694 -0.9539852
v -0.09963989 0.03263152 -0.9950275
v -0.09963989 0.08262694 -0.9950275
v -0.1296387 0.03263152 -0.9950275
v -0.1296387 0.08262694 -0.9950275
v -0.1086884 0.03263152 -1.04633
v -0.1086884 0.08262694 -1.046331
v -0.136879 0.03263152 -1.03607
v -0.136879 0.08262694 -1.03607
v -0.1347351 0.03263152 -1.091446
v -0.1347351 0.08262694 -1.091446
v -0.1577148 0.03263152 -1.072162
v -0.1577148 0.08262694 -1.072162
v -0.1746445 0.03263164 -1.124931
v -0.1746445 0.08262706 -1.124931
v -0.1896439 0.03263152 -1.098951
v -0.1896439 0.08262694 -1.098951
v -0.2235947 0.03263164 -1.142749
v -0.2235947 0.08262706 -1.142749
v -0.2288055 0.03263164 -1.113204
v -0.2288055 0.08262706 -1.113204
v -0.2756882 0.03263164 -1.142749
v -0.2756882 0.08262706 -1.142749
v -0.2704773 0.03263164 -1.113204
v -0.2704773 0.08262706 -1.113204
v -0.3246384 0.03263164 -1.124931
v -0.3246384 0.08262706 -1.124931
v -0.309639 0.03263152 -1.098951
v -0.309639 0.08262694 -1.098951
v -0.3645477 0.03263152 -1.091446
v -0.3645477 0.08262694 -1.091446
v -0.341568 0.03263152 -1.072162
v -0.341568 0.08262694 -1.072162
v -0.3905945 0.03263152 -1.046331
v -0.3905945 0.08262694 -1.046331
v -0.3624039 0.03263152 -1.03607
v -0.3624039 0.08262694 -1.03607
v -0.3905945 0.03263128 -0.5937247
v -0.3996429 0.03263128 -0.6450276
v -0.3905945 0.0826267 -0.5937247
v -0.3996429 0.0826267 -0.6450276
v -0.3696442 0.03263128 -0.6450276
v -0.3624039 0.03263128 -0.6039853
v -0.3696442 0.0826267 -0.6450276
v -0.3624039 0.0826267 -0.6039852
v -0.3645477 0.03263122 -0.5486097
v -0.3645477 0.08262664 -0.5486097
v -0.341568 0.03263128 -0.567893
v -0.341568 0.0826267 -0.567893
v -0.3246384 0.03263122 -0.5151238
v -0.3246384 0.08262664 -0.5151238
v -0.309639 0.03263122 -0.5411048
v -0.309639 0.08262664 -0.5411047
v -0.2756882 0.03263122 -0.4973063
v -0.2756882 0.08262664 -0.4973063
v -0.2704773 0.03263122 -0.5268507
v -0.2704773 0.08262664 -0.5268506
v -0.2235947 0.03263122 -0.4973063
v -0.2235947 0.08262664 -0.4973063
v -0.2288055 0.03263122 -0.5268507
v -0.2288055 0.08262664 -0.5268506
v -0.1746445 0.03263122 -0.5151238
v -0.1746445 0.08262664 -0.5151238
v -0.1896439 0.03263122 -0.5411048
v -0.1896439 0.08262664 -0.5411047
v -0.1347351 0.03263122 -0.5486097
v -0.1347351 0.08262664 -0.5486097
v -0.1577148 0.03263128 -0.567893
v -0.1577148 0.0826267 -0.567893
v -0.1086884 0.03263128 -0.5937247
v -0.1086884 0.0826267 -0.5937247
v -0.136879 0.03263128 -0.6039853
v -0.136879 0.0826267 -0.6039852
v -0.09963989 0.03263128 -0.6450276
v -0.09963989 0.0826267 -0.6450276
v -0.1296387 0.03263128 -0.6450276
v -0.1296387 0.0826267 -0.6450276
v -0.1086884 0.03263134 -0.6963305
v -0.1086884 0.08262676 -0.6963305
v -0.136879 0.03263134 -0.68607
v -0.136879 0.08262676 -0.6860699
v -0.1347351 0.03263134 -0.7414455
v -0.1347351 0.08262676 -0.741446
v -0.1577148 0.03263134 -0.7221622
v -0.1577148 0.08262676 -0.7221622
v -0.1746445 0.0326314 -0.7749314
v -0.1746445 0.08262682 -0.7749314
v -0.1896439 0.03263134 -0.7489505
v -0.1896439 0.08262676 -0.7489509
v -0.2235947 0.0326314 -0.7927489
v -0.2235947 0.08262682 -0.7927489
v -0.2288055 0.0326314 -0.7632046
v -0.2288055 0.08262682 -0.7632045
v -0.2756882 0.0326314 -0.7927489
v -0.2756882 0.08262682 -0.7927489
v -0.2704773 0.0326314 -0.7632046
v -0.2704773 0.08262682 -0.7632045
v -0.3246384 0.0326314 -0.7749314
v -0.3246384 0.08262682 -0.7749314
v -0.309639 0.03263134 -0.7489505
v -0.309639 0.08262676 -0.7489509
v -0.3645477 0.03263134 -0.741446
v -0.3645477 0.08262676 -0.741446
v -0.341568 0.03263134 -0.7221622
v -0.341568 0.08262676 -0.7221622
v -0.3905945 0.03263134 -0.6963305
v -0.3905945 0.08262676 -0.6963305
v -0.3624039 0.03263134 -0.68607
v -0.3624039 0.08262676 -0.6860699

vt -0.3078481 0.03262904
vt -0.3599426 0.03262904
vt -0.3078481 0.08262903
vt -0.3599426 0.08262903
vt 0.3547333 0.03262904
vt 0.3130577 0.03262904
vt 0.3547333 0.08262903
vt 0.3130577 0.08262903
vt -0.354275 0.03262904
vt -0.4063695 0.03262904
vt -0.354275 0.08262903
vt -0.4063695 0.08262903
vt 0.40116 0.03262904
vt 0.3594844 0.03262904
vt 0.40116 0.08262903
vt 0.3594844 0.08262903
vt -0.3548293 0.03262904
vt -0.4069238 0.03262904
vt -0.3548293 0.08262903
vt -0.4069238 0.08262903
vt 0.4017144 0.03262904
vt 0.3600388 0.03262904
vt 0.4017144 0.08262903
vt 0.3600388 0.08262903
vt -0.3094444 0.03262904
vt -0.3615389 0.03262904
vt -0.3094444 0.08262903
vt -0.3615389 0.08262903
vt 0.3563294 0.03262904
vt 0.3146538 0.03262904
vt 0.3563294 0.08262903
vt 0.3146538 0.08262903
vt -0.2235942 0.03262904
vt -0.2756886 0.03262904
vt -0.2235942 0.08262903
vt -0.2756886 0.08262903
vt 0.2704792 0.03262904
vt 0.2288036 0.03262904
vt 0.2704792 0.08262903
vt 0.2288036 0.08262903
vt -0.1076335 0.03262904
vt -0.159728 0.03262904
vt -0.1076335 0.08262903
vt -0.159728 0.08262903
vt 0.1545185 0.03262904
vt 0.112843 0.03262904
vt 0.1545185 0.08262903
vt 0.112843 0.08262903
vt 0.02445102 0.03262904
vt -0.02764343 0.03262904
vt 0.02445102 0.08262903
vt -0.02764343 0.08262903
vt 0.02243405 0.03262904
vt -0.01924151 0.03262904
vt 0.02243405 0.08262903
vt -0.01924151 0.08262903
vt 0.156728 0.03262904
vt 0.1046336 0.03262904
vt 0.156728 0.08262903
vt 0.1046336 0.08262903
vt -0.109843 0.03262904
vt -0.1515186 0.03262904
vt -0.109843 0.08262903
vt -0.1515186 0.08262903
vt 0.273243 0.03262904
vt 0.2211486 0.03262904
vt 0.273243 0.08262903
vt 0.2211486 0.08262903
vt -0.2263581 0.03262904
vt -0.2680336 0.03262904
vt -0.2263581 0.08262903
vt -0.2680336 0.08262903
vt 0.3599426 0.03262904
vt 0.3078481 0.03262904
vt 0.3599426 0.08262903
vt 0.3078481 0.08262903
vt -0.3130576 0.03262904
vt -0.3130576 0.08262903
vt 0.4063694 0.03262904
vt 0.354275 0.03262904
vt 0.4063694 0.08262903
vt 0.354275 0.08262903
vt -0.3594845 0.03262904
vt -0.40116 0.03262904
vt -0.3594845 0.08262903
vt -0.40116 0.08262903
vt 0.4069239 0.03262904
vt 0.4069239 0.08262903
vt -0.3600387 0.03262904
vt -0.4017143 0.03262904
vt -0.3600387 0.08262903
vt -0.4017143 0.08262903
vt 0.3615389 0.03262904
vt 0.3094444 0.03262904
vt 0.3615389 0.08262903
vt 0.3094444 0.08262903
vt -0.3146539 0.03262904
vt -0.3563295 0.03262904
vt -0.3146539 0.08262903
vt -0.3563295 0.08262903
vt 0.2756886 0.03262904
vt 0.2235942 0.03262904
vt 0.2756886 0.08262903
vt 0.2235942 0.08262903
vt -0.2288036 0.03262904
vt -0.2704792 0.03262904
vt -0.2288036 0.08262903
vt -0.2704792 0.08262903
vt 0.159728 0.03262904
vt 0.1076335 0.03262904
vt 0.159728 0.08262903
vt 0.1076335 0.08262903
vt -0.112843 0.03262904
vt -0.1545185 0.03262904
vt -0.112843 0.08262903
vt -0.1545185 0.08262903
vt 0.0276437 0.03262904
vt -0.02445076 0.03262904
vt 0.0276437 0.08262903
vt -0.02445076 0.08262903
vt 0.01924135 0.03262904
vt -0.02243418 0.03262904
vt 0.01924135 0.08262903
vt -0.02243418 0.08262903
vt -0.1046336 0.03262904
vt -0.156728 0.03262904
vt -0.1046336 0.08262903
vt -0.156728 0.08262903
vt 0.1515186 0.03262904
vt 0.1098431 0.03262904
vt 0.1515186 0.08262903
vt 0.1098431 0.08262903
vt -0.2211486 0.03262904
vt -0.2732431 0.03262904
vt -0.2211486 0.08262903
vt -0.2732431 0.08262903
vt 0.2680336 0.03262904
vt 0.226358 0.03262904
vt 0.2680336 0.08262903
vt 0.226358 0.08262903
vt -0.3996414 -0.2950277
vt -0.3905953 -0.2437247
vt -0.3696414 -0.2950277
vt -0.3624045 -0.2539853
vt 0.3905953 -0.2437247
vt 0.3996414 -0.2950277
vt 0.3624045 -0.2539853
vt 0.3696414 -0.2950277
vt -0.3645481 -0.1986096
vt -0.3415667 -0.2178932
vt 0.3645481 -0.1986096
vt 0.3415667 -0.2178932
vt -0.3246414 -0.1651239
vt -0.3096414 -0.1911047
vt 0.3246414 -0.1651239
vt 0.3096414 -0.1911047
vt -0.2756886 -0.1473066
vt -0.2704792 -0.1768508
vt 0.2756886 -0.1473066
vt 0.2704792 -0.1768508
vt -0.2235942 -0.1473066
vt -0.2288036 -0.1768508
vt 0.2235942 -0.1473066
vt 0.2288036 -0.1768508
vt -0.1746414 -0.1651239
vt -0.1896414 -0.1911047
vt 0.1746414 -0.1651239
vt 0.1896414 -0.1911047
vt -0.1347347 -0.1986096
vt -0.1577161 -0.2178932
vt 0.1347347 -0.1986096
vt 0.1577161 -0.2178932
vt -0.1086875 -0.2437247
vt -0.1368783 -0.2539853
vt 0.1086875 -0.2437247
vt 0.1368783 -0.2539853
vt -0.09964141 -0.2950277
vt -0.1296414 -0.2950277
vt 0.09964141 -0.2950277
vt 0.1296414 -0.2950277
vt -0.1086875 -0.3463308
vt -0.1368783 -0.3360702
vt 0.1086875 -0.3463308
vt 0.1368783 -0.3360702
vt -0.1347347 -0.3914459
vt -0.1577161 -0.3721623
vt 0.1347347 -0.3914459
vt 0.1577161 -0.3721623
vt -0.1746414 -0.4249316
vt -0.1896414 -0.3989508
vt 0.1746414 -0.4249316
vt 0.1896414 -0.3989508
vt -0.2235942 -0.4427489
vt -0.2288036 -0.4132047
vt 0.2235942 -0.4427489
vt 0.2288036 -0.4132047
vt -0.2756886 -0.4427489
vt -0.2704792 -0.4132047
vt 0.2756886 -0.4427489
vt 0.2704792 -0.4132047
vt -0.3246414 -0.4249316
vt -0.3096414 -0.3989508
vt 0.3246414 -0.4249316
vt 0.3096414 -0.3989508
vt -0.3645481 -0.3914459
vt -0.3415667 -0.3721623
vt 0.3645481 -0.3914459
vt 0.3415667 -0.3721623
vt -0.3905953 -0.3463308
vt -0.3624045 -0.3360702
vt 0.3905953 -0.3463308
vt 0.3624045 -0.3360702

vn -0.9396926 0 0.3420202
vn -1 0 3.782759E-08
vn 1 0 -6.808966E-08
vn 0.9396926 0 -0.3420203
vn -0.7660444 0 0.6427877
vn 0.7660445 0 -0.6427875
vn -0.5000001 0 0.8660254
vn 0.5000001 0 -0.8660253
vn -0.1736482 0 0.9848078
vn 0.1736482 0 -0.9848078
vn 0.1736482 0 0.9848078
vn -0.1736482 0 -0.9848078
vn 0.5000001 0 0.8660253
vn -0.5 0 -0.8660254
vn 0.7660444 0 0.6427876
vn -0.7660444 0 -0.6427876
vn 0.9396926 0 0.3420202
vn -0.9396927 0 -0.3420201
vn 0.5 0 -0.8660254
vn -0.4999999 0 0.8660255
vn -0.4999999 0 -0.8660255
vn 0.4999999 0 0.8660254
vn 0 -1 0
vn 0 1 0

usemtl M_AggregateEmmisve
f 3/3/1 4/4/2 2/2/2 1/1/1
f 7/7/3 8/8/4 6/6/4 5/5/3
f 10/11/5 3/12/1 1/10/1 9/9/5
f 8/15/4 12/16/6 11/14/6 6/13/4
f 14/19/7 10/20/5 9/18/5 13/17/7
f 12/23/6 16/24/8 15/22/8 11/21/6
f 18/27/9 14/28/7 13/26/7 17/25/9
f 16/31/8 20/32/10 19/30/10 15/29/8
f 22/35/11 18/36/9 17/34/9 21/33/11
f 20/39/10 24/40/12 23/38/12 19/37/10
f 26/43/13 22/44/11 21/42/11 25/41/13
f 24/47/12 28/48/14 27/46/14 23/45/12
f 30/51/15 26/52/13 25/50/13 29/49/15
f 28/55/14 32/56/16 31/54/16 27/53/14
f 34/59/17 30/60/15 29/58/15 33/57/17
f 32/63/16 36/64/18 35/62/18 31/61/16
f 38/67/3 34/68/17 33/66/17 37/65/3
f 36/71/18 40/72/2 39/70/2 35/69/18
f 42/75/4 38/76/3 37/74/3 41/73/4
f 40/78/2 44/19/1 43/17/1 39/77/2
f 46/81/6 42/82/4 41/80/4 45/79/6
f 44/85/1 48/86/5 47/84/5 43/83/1
f 50/88/19 46/7/6 45/5/6 49/87/19
f 48/91/5 52/92/20 51/90/20 47/89/5
f 54/95/10 50/96/19 49/94/19 53/93/10
f 52/99/20 56/100/9 55/98/9 51/97/20
f 58/103/12 54/104/10 53/102/10 57/101/12
f 56/107/9 60/108/11 59/106/11 55/105/9
f 62/111/21 58/112/12 57/110/12 61/109/21
f 60/115/11 64/116/22 63/114/22 59/113/11
f 66/119/16 62/120/21 61/118/21 65/117/16
f 64/123/22 68/124/15 67/122/15 63/121/22
f 70/127/18 66/128/16 65/126/16 69/125/18
f 68/131/15 72/132/17 71/130/17 67/129/15
f 4/135/2 70/136/18 69/134/18 2/133/2
f 72/139/17 7/140/3 5/138/3 71/137/17
f 5/143/23 6/144/23 1/142/23 2/141/23
f 8/147/24 7/148/24 4/146/24 3/145/24
f 6/144/23 11/150/23 9/149/23 1/142/23
f 12/152/24 8/147/24 3/145/24 10/151/24
f 11/150/23 15/154/23 13/153/23 9/149/23
f 16/156/24 12/152/24 10/151/24 14/155/24
f 15/154/23 19/158/23 17/157/23 13/153/23
f 20/160/24 16/156/24 14/155/24 18/159/24
f 19/158/23 23/162/23 21/161/23 17/157/23
f 24/164/24 20/160/24 18/159/24 22/163/24
f 23/162/23 27/166/23 25/165/23 21/161/23
f 28/168/24 24/164/24 22/163/24 26/167/24
f 27/166/23 31/170/23 29/169/23 25/165/23
f 32/172/24 28/168/24 26/167/24 30/171/24
f 31/170/23 35/174/23 33/173/23 29/169/23
f 36/176/24 32/172/24 30/171/24 34/175/24
f 35/174/23 39/178/23 37/177/23 33/173/23
f 40/180/24 36/176/24 34/175/24 38/179/24
f 39/178/23 43/182/23 41/181/23 37/177/23
f 44/184/24 40/180/24 38/179/24 42/183/24
f 43/182/23 47/186/23 45/185/23 41/181/23
f 48/188/24 44/184/24 42/183/24 46/187/24
f 47/186/23 51/190/23 49/189/23 45/185/23
f 52/192/24 48/188/24 46/187/24 50/191/24
f 51/190/23 55/194/23 53/193/23 49/189/23
f 56/196/24 52/192/24 50/191/24 54/195/24
f 55/194/23 59/198/23 57/197/23 53/193/23
f 60/200/24 56/196/24 54/195/24 58/199/24
f 59/198/23 63/202/23 61/201/23 57/197/23
f 64/204/24 60/200/24 58/199/24 62/203/24
f 63/202/23 67/206/23 65/205/23 61/201/23
f 68/208/24 64/204/24 62/203/24 66/207/24
f 67/206/23 71/210/23 69/209/23 65/205/23
f 72/212/24 68/208/24 66/207/24 70/211/24
f 71/210/23 5/143/23 2/141/23 69/209/23
f 7/148/24 72/212/24 70/211/24 4/146/24
f 75/3/1 76/4/2 74/2/2 73/1/1
f 79/7/3 80/8/4 78/6/4 77/5/3
f 82/11/5 75/12/1 73/10/1 81/9/5
f 80/15/4 84/16/6 83/14/6 78/13/4
f 86/19/20 82/20/5 81/18/5 85/17/20
f 84/23/6 88/24/19 87/22/19 83/21/6
f 90/27/9 86/28/20 85/26/20 89/25/9
f 88/31/19 92/32/10 91/30/10 87/29/19
f 94/35/11 90/36/9 89/34/9 93/33/11
f 92/39/10 96/40/12 95/38/12 91/37/10
f 98/43/22 94/44/11 93/42/11 97/41/22
f 96/47/12 100/48/21 99/46/21 95/45/12
f 102/51/15 98/52/22 97/50/22 101/49/15
f 100/55/21 104/56/16 103/54/16 99/53/21
f 106/59/17 102/60/15 101/58/15 105/57/17
f 104/63/16 108/64/18 107/62/18 103/61/16
f 110/67/3 106/68/17 105/66/17 109/65/3
f 108/71/18 112/72/2 111/70/2 107/69/18
f 114/75/4 110/76/3 109/74/3 113/73/4
f 112/78/2 116/19/1 115/17/1 111/77/2
f 118/81/6 114/82/4 113/80/4 117/79/6
f 116/85/1 120/86/5 119/84/5 115/83/1
f 122/88/19 118/7/6 117/5/6 121/87/19
f 120/91/5 124/92/20 123/90/20 119/89/5
f 126/95/10 122/96/19 121/94/19 125/93/10
f 124/99/20 128/100/9 127/98/9 123/97/20
f 130/103/12 126/104/10 125/102/10 129/101/12
f 128/107/9 132/108/11 131/106/11 127/105/9
f 134/111/21 130/112/12 129/110/12 133/109/21
f 132/115/11 136/116/22 135/114/22 131/113/11
f 138/119/16 134/120/21 133/118/21 137/117/16
f 136/123/22 140/124/15 139/122/15 135/121/22
f 142/127/18 138/128/16 137/126/16 141/125/18
f 140/131/15 144/132/17 143/130/17 139/129/15
f 76/135/2 142/136/18 141/134/18 74/133/2
f 144/139/17 79/140/3 77/138/3 143/137/17
f 77/143/23 78/144/23 73/142/23 74/141/23
f 80/147/24 79/148/24 76/146/24 75/145/24
f 78/144/23 83/150/23 81/149/23 73/142/23
f 84/152/24 80/147/24 75/145/24 82/151/24
f 83/150/23 87/154/23 85/153/23 81/149/23
f 88/156/24 84/152/24 82/151/24 86/155/24
f 87/154/23 91/158/23 89/157/23 85/153/23
f 92/160/24 88/156/24 86/155/24 90/159/24
f 91/158/23 95/162/23 93/161/23 89/157/23
f 96/164/24 92/160/24 90/159/24 94/163/24
f 95/162/23 99/166/23 97/165/23 93/161/23
f 100/168/24 96/164/24 94/163/24 98/167/24
f 99/166/23 103/170/23 101/169/23 97/165/23
f 104/172/24 100/168/24 98/167/24 102/171/24
f 103/170/23 107/174/23 105/173/23 101/169/23
f 108/176/24 104/172/24 102/171/24 106/175/24
f 107/174/23 111/178/23 109/177/23 105/173/23
f 112/180/24 108/176/24 106/175/24 110/179/24
f 111/178/23 115/182/23 113/181/23 109/177/23
f 116/184/24 112/180/24 110/179/24 114/183/24
f 115/182/23 119/186/23 117/185/23 113/181/23
f 120/188/24 116/184/24 114/183/24 118/187/24
f 119/186/23 123/190/23 121/189/23 117/185/23
f 124/192/24 120/188/24 118/187/24 122/191/24
f 123/190/23 127/194/23 125/193/23 121/189/23
f 128/196/24 124/192/24 122/191/24 126/195/24
f 127/194/23 131/198/23 129/197/23 125/193/23
f 132/200/24 128/196/24 126/195/24 130/199/24
f 131/198/23 135/202/23 133/201/23 129/197/23
f 136/204/24 132/200/24 130/199/24 134/203/24
f 135/202/23 139/206/23 137/205/23 133/201/23
f 140/208/24 136/204/24 134/203/24 138/207/24
f 139/206/23 143/210/23 141/209/23 137/205/23
f 144/212/24 140/208/24 138/207/24 142/211/24
f 143/210/23 77/143/23 74/141/23 141/209/23
f 79/148/24 144/212/24 142/211/24 76/146/24
f 147/3/1 148/4/2 146/2/2 145/1/1
f 151/7/3 152/8/4 150/6/4 149/5/3
f 154/11/5 147/12/1 145/10/1 153/9/5
f 152/15/4 156/16/6 155/14/6 150/13/4
f 158/19/20 154/20/5 153/18/5 157/17/20
f 156/23/6 160/24/19 159/22/19 155/21/6
f 162/27/9 158/28/20 157/26/20 161/25/9
f 160/31/19 164/32/10 163/30/10 159/29/19
f 166/35/11 162/36/9 161/34/9 165/33/11
f 164/39/10 168/40/12 167/38/12 163/37/10
f 170/43/22 166/44/11 165/42/11 169/41/22
f 168/47/12 172/48/21 171/46/21 167/45/12
f 174/51/15 170/52/22 169/50/22 173/49/15
f 172/55/21 176/56/16 175/54/16 171/53/21
f 178/59/17 174/60/15 173/58/15 177/57/17
f 176/63/16 180/64/18 179/62/18 175/61/16
f 182/67/3 178/68/17 177/66/17 181/65/3
f 180/71/18 184/72/2 183/70/2 179/69/18
f 186/75/4 182/76/3 181/74/3 185/73/4
f 184/78/2 188/19/1 187/17/1 183/77/2
f 190/81/6 186/82/4 185/80/4 189/79/6
f 188/85/1 192/86/5 191/84/5 187/83/1
f 194/88/19 190/7/6 189/5/6 193/87/19
f 192/91/5 196/92/20 195/90/20 191/89/5
f 198/95/10 194/96/19 193/94/19 197/93/10
f 196/99/20 200/100/9 199/98/9 195/97/20
f 202/103/12 198/104/10 197/102/10 201/101/12
f 200/107/9 204/108/11 203/106/11 199/105/9
f 206/111/21 202/112/12 201/110/12 205/109/21
f 204/115/11 208/116/22 207/114/22 203/113/11
f 210/119/16 206/120/21 205/118/21 209/117/16
f 208/123/22 212/124/15 211/122/15 207/121/22
f 214/127/18 210/128/16 209/126/16 213/125/18
f 212/131/15 216/132/17 215/130/17 211/129/15
f 148/135/2 214/136/18 213/134/18 146/133/2
f 216/139/17 151/140/3 149/138/3 215/137/17
f 149/143/23 150/144/23 145/142/23 146/141/23
f 152/147/24 151/148/24 148/146/24 147/145/24
f 150/144/23 155/150/23 153/149/23 145/142/23
f 156/152/24 152/147/24 147/145/24 154/151/24
f 155/150/23 159/154/23 157/153/23 153/149/23
f 160/156/24 156/152/24 154/151/24 158/155/24
f 159/154/23 163/158/23 161/157/23 157/153/23
f 164/160/24 160/156/24 158/155/24 162/159/24
f 163/158/23 167/162/23 165/161/23 161/157/23
f 168/164/24 164/160/24 162/159/24 166/163/24
f 167/162/23 171/166/23 169/165/23 165/161/23
f 172/168/24 168/164/24 166/163/24 170/167/24
f 171/166/23 175/170/23 173/169/23 169/165/23
f 176/172/24 172/168/24 170/167/24 174/171/24
f 175/170/23 179/174/23 177/173/23 173/169/23
f 180/176/24 176/172/24 174/171/24 178/175/24
f 179/174/23 183/178/23 181/177/23 177/173/23
f 184/180/24 180/176/24 178/175/24 182/179/24
f 183/178/23 187/182/23 185/181/23 181/177/23
f 188/184/24 184/180/24 182/179/24 186/183/24
f 187/182/23 191/186/23 189/185/23 185/181/23
f 192/188/24 188/184/24 186/183/24 190/187/24
f 191/186/23 195/190/23 193/189/23 189/185/23
f 196/192/24 192/188/24 190/187/24 194/191/24
f 195/190/23 199/194/23 197/193/23 193/189/23
f 200/196/24 196/192/24 194/191/24 198/195/24
f 199/194/23 203/198/23 201/197/23 197/193/23
f 204/200/24 200/196/24 198/195/24 202/199/24
f 203/198/23 207/202/23 205/201/23 201/197/23
f 208/204/24 204/200/24 202/199/24 206/203/24
f 207/202/23 211/206/23 209/205/23 205/201/23
f 212/208/24 208/204/24 206/203/24 210/207/24
f 211/206/23 215/210/23 213/209/23 209/205/23
f 216/212/24 212/208/24 210/207/24 214/211/24
f 215/210/23 149/143/23 146/141/23 213/209/23
f 151/148/24 216/212/24 214/211/24 148/146/24

